<?xml version="1.0" standalone="no"?>
<!DOCTYPE svg PUBLIC "-//W3C//DTD SVG 20010904//EN"
 "http://www.w3.org/TR/2001/REC-SVG-20010904/DTD/svg10.dtd">
<svg version="1.0" xmlns="http://www.w3.org/2000/svg"
 width="260.000000pt" height="260.000000pt" viewBox="0 0 260.000000 260.000000"
 preserveAspectRatio="xMidYMid meet">
<metadata>
Created by potrace 1.11, written by Peter Selinger 2001-2013
</metadata>
<g transform="translate(0.000000,260.000000) scale(0.100000,-0.100000)"
fill="#000000" stroke="none">
<path d="M10 1295 l0 -1295 1295 0 1295 0 0 1295 0 1295 -1295 0 -1295 0 0
-1295z m1131 -45 l146 -390 -86 0 -87 0 -25 78 -25 77 -144 0 -144 0 -25 -77
-25 -78 -83 0 c-46 0 -83 3 -83 8 0 4 64 179 142 390 l142 382 75 0 76 0 146
-390z m627 375 c60 -18 119 -66 138 -112 34 -80 6 -191 -58 -231 l-32 -21 25
-9 c37 -15 87 -76 95 -117 17 -92 -17 -183 -84 -226 -63 -40 -121 -49 -317
-49 l-175 0 0 390 0 390 178 0 c132 0 192 -4 230 -15z"/>
<path d="M872 1302 c-23 -70 -42 -133 -42 -140 0 -9 27 -12 94 -12 l94 0 -46
140 c-26 77 -49 140 -52 140 -3 0 -25 -58 -48 -128z"/>
<path d="M1520 1416 l0 -96 95 0 c88 0 98 2 120 25 34 33 34 93 1 132 -23 26
-29 28 -120 31 l-96 4 0 -96z"/>
<path d="M1520 1095 l0 -105 90 0 c102 0 145 15 160 56 22 57 2 121 -45 142
-14 7 -66 12 -115 12 l-90 0 0 -105z"/>
</g>
</svg>
